<?xml version="1.0" encoding="utf-8"?>
<!-- Generator: Adobe Illustrator 16.0.0, SVG Export Plug-In . SVG Version: 6.00 Build 0)  -->
<!DOCTYPE svg PUBLIC "-//W3C//DTD SVG 1.1//EN" "http://www.w3.org/Graphics/SVG/1.1/DTD/svg11.dtd">
<svg version="1.1" id="Layer_1" xmlns="http://www.w3.org/2000/svg" xmlns:xlink="http://www.w3.org/1999/xlink" x="0px" y="0px"
	 width="118px" height="202px" viewBox="0 0 118 202" style="enable-background:new 0 0 118 202;" xml:space="preserve">
<g>
	<path style="fill:#FFFFFF;" d="M115.1,174.1c0,13.5-10.8,24.5-24.1,24.5H27c-13.3,0-24.1-11-24.1-24.5V27.9
		C2.9,14.3,13.7,3.4,27,3.4H91c13.3,0,24.1,11,24.1,24.5V174.1z"/>
	<path style="fill:none;stroke:#179190;stroke-width:5;stroke-miterlimit:10;" d="M115.1,174.1c0,13.5-10.8,24.5-24.1,24.5H27
		c-13.3,0-24.1-11-24.1-24.5V27.9C2.9,14.3,13.7,3.4,27,3.4H91c13.3,0,24.1,11,24.1,24.5V174.1z"/>
	<rect x="11.6" y="29" style="fill:#BCD8C5;" width="94.7" height="143.9"/>
	<path style="fill:#14375D;" d="M72.4,20.8c0,1.2-0.9,2.1-2.1,2.1H47.7c-1.2,0-2.1-0.9-2.1-2.1l0,0c0-1.2,0.9-2.1,2.1-2.1h22.6
		C71.5,18.7,72.4,19.6,72.4,20.8L72.4,20.8z"/>
	<circle style="fill:#14375D;" cx="59" cy="12.8" r="2.3"/>
	<rect x="16.8" y="35.5" style="fill:#338FC2;" width="84.4" height="12.4"/>
	<rect x="18" y="60" style="fill:#14375D;" width="62.7" height="4.3"/>
	<rect x="18" y="69.6" style="fill:#14375D;" width="72.8" height="4.3"/>
	<rect x="18" y="79.2" style="fill:#14375D;" width="41" height="4.3"/>
	<path style="fill:#338FC2;" d="M98.7,163c0,1.1-0.9,2-2,2H21.3c-1.1,0-2-0.9-2-2v-12.2c0-1.1,0.9-2,2-2h75.5c1.1,0,2,0.9,2,2V163z"
		/>
	<circle style="fill:#179190;" cx="59" cy="185.3" r="8.8"/>
</g>
</svg>
